<mxfile host="app.diagrams.net" modified="2023-08-16T01:30:02.803Z" agent="Mozilla/5.0 (Macintosh; Intel Mac OS X 10_15_7) AppleWebKit/605.1.15 (KHTML, like Gecko) Version/16.6 Safari/605.1.15" version="21.6.8" etag="Z1b4YmWPANQZheXuJdCI" type="github">
  <diagram name="Page-1" id="h2oVOPjFSOncqsJmU69Y">
    <mxGraphModel>
      <root>
        <mxCell id="0" />
        <mxCell id="1" parent="0" />
      </root>
    </mxGraphModel>
  </diagram>
</mxfile>
